<svg width="25" height="25" viewBox="0 0 25 25" fill="none" xmlns="http://www.w3.org/2000/svg">
<path d="M22.3214 1.78571C22.8125 1.78571 23.2143 2.1875 23.2143 2.67857V22.3214C23.2143 22.8125 22.8125 23.2143 22.3214 23.2143H2.67857C2.1875 23.2143 1.78571 22.8125 1.78571 22.3214V2.67857C1.78571 2.1875 2.1875 1.78571 2.67857 1.78571H22.3214ZM22.3214 0H2.67857C1.19978 0 0 1.19978 0 2.67857V22.3214C0 23.8002 1.19978 25 2.67857 25H22.3214C23.8002 25 25 23.8002 25 22.3214V2.67857C25 1.19978 23.8002 0 22.3214 0ZM18.9732 11.4955H13.5045V6.02679C13.5045 5.65848 13.2031 5.35714 12.8348 5.35714H12.1652C11.7969 5.35714 11.4955 5.65848 11.4955 6.02679V11.4955H6.02679C5.65848 11.4955 5.35714 11.7969 5.35714 12.1652V12.8348C5.35714 13.2031 5.65848 13.5045 6.02679 13.5045H11.4955V18.9732C11.4955 19.3415 11.7969 19.6429 12.1652 19.6429H12.8348C13.2031 19.6429 13.5045 19.3415 13.5045 18.9732V13.5045H18.9732C19.3415 13.5045 19.6429 13.2031 19.6429 12.8348V12.1652C19.6429 11.7969 19.3415 11.4955 18.9732 11.4955Z" fill="white"/>
</svg>
