<svg width="25" height="25" viewBox="0 0 25 25" fill="none" xmlns="http://www.w3.org/2000/svg">
<path d="M23.7988 15.415L21.7187 14.2139C21.9287 13.0811 21.9287 11.9189 21.7187 10.7861L23.7988 9.58496C24.0381 9.44824 24.1455 9.16504 24.0674 8.90137C23.5254 7.16309 22.6025 5.59082 21.3965 4.28223C21.2109 4.08203 20.9082 4.0332 20.6738 4.16992L18.5937 5.37109C17.7197 4.61914 16.7139 4.03809 15.625 3.65723V1.25977C15.625 0.986328 15.4346 0.74707 15.166 0.688477C13.374 0.288086 11.5381 0.307617 9.83397 0.688477C9.56542 0.74707 9.37499 0.986328 9.37499 1.25977V3.66211C8.29101 4.04785 7.28515 4.62891 6.40624 5.37598L4.33105 4.17481C4.09179 4.03809 3.79394 4.08203 3.60839 4.28711C2.40234 5.59082 1.47949 7.16309 0.937494 8.90625C0.854486 9.16992 0.96679 9.45313 1.20605 9.58984L3.28612 10.791C3.07616 11.9238 3.07616 13.0859 3.28612 14.2188L1.20605 15.4199C0.96679 15.5566 0.859369 15.8398 0.937494 16.1035C1.47949 17.8418 2.40234 19.4141 3.60839 20.7227C3.79394 20.9229 4.09667 20.9717 4.33105 20.835L6.41112 19.6338C7.28515 20.3857 8.29101 20.9668 9.37987 21.3477V23.75C9.37987 24.0234 9.5703 24.2627 9.83886 24.3213C11.6308 24.7217 13.4668 24.7022 15.1709 24.3213C15.4394 24.2627 15.6299 24.0234 15.6299 23.75V21.3477C16.7139 20.9619 17.7197 20.3809 18.5986 19.6338L20.6787 20.835C20.9179 20.9717 21.2158 20.9277 21.4013 20.7227C22.6074 19.4189 23.5303 17.8467 24.0722 16.1035C24.1455 15.835 24.0381 15.5518 23.7988 15.415ZM12.5 16.4063C10.3467 16.4063 8.59374 14.6533 8.59374 12.5C8.59374 10.3467 10.3467 8.59375 12.5 8.59375C14.6533 8.59375 16.4062 10.3467 16.4062 12.5C16.4062 14.6533 14.6533 16.4063 12.5 16.4063Z" fill="white"/>
</svg>
